<svg xmlns="http://www.w3.org/2000/svg" xmlns:xlink="http://www.w3.org/1999/xlink"
viewBox="0 0 160 160" height="160px" width="160px">
<g>
<path style="fill:#4D4D4D" d="M70 150l0 -10 20 0 0 10 -20 0zm-39 -105l-8 -7 15 -15 7 8 -14 14zm14 14l-7 -7 14 -14 7 7 -14 14zm11 11l-4 -4 14 -14 4 4 0 -6 20 0 0 6 4 -4 14 14 -4 4 6 0 0 20 -6 0 4 4 -14 14 -4 -4 0 6 -20 0 0 -6 -4 4 -14 -14 4 -4 -6 0 0 -20 6 0zm16 -10l-12 12 0 16 12 12 16 0 12 -12 0 -16 -12 -12 -16 0zm-34 48l7 -7 14 14 -7 7 -14 -14zm-15 14l8 -7 14 14 -7 8 -15 -15zm85 0l-7 -7 14 -14 7 7 -14 14zm7 -91l7 -8 15 15 -8 7 -14 -14zm-14 14l7 -7 14 14 -7 7 -14 -14zm21 92l-7 -8 14 -14 8 7 -15 15zm-52 -117l0 -10 20 0 0 10 -20 0zm0 20l0 -10 20 0 0 10 -20 0zm0 40l0 -10 10 0 10 0 0 10 0 10 -10 0 -10 0 0 -10zm-40 -10l10 0 0 20 -10 0 0 -20zm-20 0l10 0 0 20 -10 0 0 -20zm60 60l0 -10 20 0 0 10 -20 0zm70 -60l10 0 0 20 -10 0 0 -20zm-20 0l10 0 0 20 -10 0 0 -20z"/>
<path style="fill:gray" d="M0 70l10 0 0 20 -10 0 0 -20zm87 31l-1 -1 -12 0 -1 1 -1 -1 -2 0 0 -2 -8 -8 -2 0 0 -2 -1 -1 1 -1 0 -12 -1 -1 1 -1 0 -2 2 0 8 -8 0 -2 2 0 1 -1 1 1 12 0 1 -1 1 1 2 0 0 2 8 8 2 0 0 2 1 1 -1 1 0 12 1 1 -1 1 0 2 -2 0 -8 8 0 2 -2 0 -1 1zm-3 -11l6 -6 0 -8 -6 -6 -8 0 -6 6 0 8 6 6 8 0zm17 25l-7 -7 14 -14 7 7 -14 14zm14 14l-7 -7 14 -14 7 7 -14 14zm7 -106l7 -7 15 15 -7 7 -15 -15zm-14 15l7 -7 14 14 -7 7 -14 -14zm-14 14l7 -7 14 14 -7 7 -14 -14zm35 92l-7 -7 15 -15 7 7 -15 15zm-106 -106l-7 -7 15 -15 7 7 -15 15zm15 14l-7 -7 14 -14 7 7 -14 14zm14 14l-7 -7 14 -14 7 7 -14 14zm-7 35l7 -7 14 14 -7 7 -14 -14zm-14 14l7 -7 14 14 -7 7 -14 -14zm-15 14l7 -7 15 15 -7 7 -15 -15zm54 -9l0 -10 20 0 0 10 -20 0zm0 20l0 -10 20 0 0 10 -20 0zm80 -70l10 0 0 20 -10 0 0 -20zm-20 0l10 0 0 20 -10 0 0 -20zm-20 0l10 0 0 20 -10 0 0 -20zm-40 90l0 -10 20 0 0 10 -20 0zm0 -150l0 -10 20 0 0 10 -20 0zm0 20l0 -10 20 0 0 10 -20 0zm0 20l0 -10 20 0 0 10 -20 0zm-30 20l10 0 0 20 -10 0 0 -20zm-20 0l10 0 0 20 -10 0 0 -20z"/>
</g></svg>