<svg xmlns="http://www.w3.org/2000/svg" xmlns:xlink="http://www.w3.org/1999/xlink"
viewBox="0 0 160 160" height="160px" width="160px">
<g><path style="fill:#000000" d="M31 111l-9 9c-2,2 -2,6 0,8l10 10c2,2 6,2 8,0l9
-9 18 7 0 13c0,3 3,6 6,6l14 0c3,0 6,-3 6,-6l0 -13 18 -7 9 9c2,2 6,2 8,0l10
-10c2,-2 2,-6 0,-8l-9 -9 7 -18 13 0c3,0 6,-3 6,-6l0 -14c0,-3 -3,-6 -6,-6l-13 0
-7 -18 9 -9c2,-2 2,-6 0,-8l-10 -10c-2,-2 -6,-2 -8,0l-9 9 -18 -7 0 -13c0,-3 -3,-6
-6,-6l-14 0c-3,0 -6,3 -6,6l0 13 -18 7 -9 -9c-2,-2 -6,-2 -8,0l-10 10c-2,2 -2,6
0,8l9 9 -7 18 -13 0c-3,0 -6,3 -6,6l0 14c0,3 3,6 6,6l13 0 7 18zm49 -56c14,0 25,11
25,25 0,14 -11,25 -25,25 -14,0 -26,-11 -26,-25 0,-14 12,-25 26,-25z"/></g></svg>