<svg xmlns="http://www.w3.org/2000/svg" xmlns:xlink="http://www.w3.org/1999/xlink"
viewBox="0 0 160 160" height="160px" width="160px">
<g><path class="fil0" d="M19 10l82 0c5,0 9,4 9,9l0 92c0,5 -4,9 -9,9l-82 0c-5,0
-9,-4 -9,-9l0 -92c0,-5 4,-9 9,-9zm101 30l21 0c5,0 9,4 9,9l0 92c0,5 -4,9 -9,9l-82
0c-5,0 -9,-4 -9,-9l0 -11c27,0 53,0 80,0 3,0 5,-2 5,-5 0,-3 -2,-5 -5,-5l-10 0 0
-10 10 0c3,0 5,-2 5,-5 0,-3 -2,-5 -5,-5l-10 0 0 -10 10 0c3,0 5,-2 5,-5 0,-3
-2,-5 -5,-5l-10 0 0 -10 10 0c3,0 5,-2 5,-5 0,-3 -2,-5 -5,-5l-10 0 0 -20zm-90
40l60 0c3,0 5,-2 5,-5 0,-3 -2,-5 -5,-5l-60 0c-3,0 -5,2 -5,5 0,3 2,5 5,5zm0
-20l60 0c3,0 5,-2 5,-5 0,-3 -2,-5 -5,-5l-60 0c-3,0 -5,2 -5,5 0,3 2,5 5,5zm0
40l37 0c3,0 5,-2 5,-5 0,-3 -2,-5 -5,-5l-37 0c-3,0 -5,2 -5,5 0,3 2,5 5,5zm0
-60l60 0c3,0 5,-2 5,-5 0,-3 -2,-5 -5,-5l-60 0c-3,0 -5,2 -5,5 0,3 2,5 5,5z"/>
</g></svg>